# xmcd CD database file generated by GCD 2.96
# 
# Track frame offsets:
#       150
#       16220
#       25385
#       34702
#       48327
#       60952
#       71625
#       82395
#       93890
#       106672
#       117935
#       129615
#       141545
#       155997
# 
# Disc length: 2225 seconds
# 
# Revision: 0
# Processed by: cddbd v1.4PL0 Copyright (c) Steve Scherf et al.
# Submitted via: GCD 2.96
# 
DISCID=c008af0e
DTITLE=Patti LaBelle and the blue belles - The best of the early years
DYEAR=1900
DGENRE=
TTITLE0=Down the aisle (the wedding song)
TTITLE1=I sold my heart to the junkman (alternate version)
TTITLE2=Academy award
TTITLE3=Have I sinned
TTITLE4=Danny boy
TTITLE5=Tear after tear
TTITLE6=Decatur Street
TTITLE7=Island of unbroken hearts
TTITLE8=One phone call (will
TTITLE9=I believe
TTITLE10=Cool water
TTITLE11=The joke's on you
TTITLE12=You'll never walk alone
TTITLE13=I sold my heart to the junkman
EXTD=
EXTT0=
EXTT1=
EXTT2=
EXTT3=
EXTT4=
EXTT5=
EXTT6=
EXTT7=
EXTT8=
EXTT9=
EXTT10=
EXTT11=
EXTT12=
EXTT13=
PLAYORDER=
